name rise32.9588peak41.5061fall63.4684.mot
datacolumns 19
datarows 21
range 11.57828700000000 11.61162400000000
endheader
time	ground_force1_vx	ground_force1_vy	ground_force1_vz	ground_force1_px	ground_force1_py	ground_force1_pz	ground_force2_vx	ground_force2_vy	ground_force2_vz	ground_force2_px	ground_force2_py	ground_force2_pz	ground_torque1_x	ground_torque1_y	ground_torque1_z	ground_torque2_x	ground_torque2_y	ground_torque2_z	
11.57828700000000	53.14462400000000	757.69956400000001	58.61400000000000	0.29984800000000	0.00000000000000	0.11393400000000	0.00000000000000	0.00000000000000	0.00000000000000	0.00000000000000	0.00000000000000	0.00000000000000	0.00000000000000	22.93697900000000	0.00000000000000	0.00000000000000	0.00000000000000	0.00000000000000	
11.57995300000000	52.55823900000000	759.99663599999997	58.69139300000000	0.29908500000000	0.00000000000000	0.11392700000000	0.00000000000000	0.00000000000000	0.00000000000000	0.00000000000000	0.00000000000000	0.00000000000000	0.00000000000000	22.98117700000000	0.00000000000000	0.00000000000000	0.00000000000000	0.00000000000000	
11.58162300000000	51.98150800000000	762.20154800000000	58.76350800000000	0.29835900000000	0.00000000000000	0.11391900000000	0.00000000000000	0.00000000000000	0.00000000000000	0.00000000000000	0.00000000000000	0.00000000000000	0.00000000000000	23.02327300000000	0.00000000000000	0.00000000000000	0.00000000000000	0.00000000000000	
11.58329400000000	51.41487600000000	764.31287599999996	58.83029200000000	0.29767000000000	0.00000000000000	0.11391000000000	0.00000000000000	0.00000000000000	0.00000000000000	0.00000000000000	0.00000000000000	0.00000000000000	0.00000000000000	23.06316900000000	0.00000000000000	0.00000000000000	0.00000000000000	0.00000000000000	
11.58496000000000	50.85869100000000	766.32919000000004	58.89163600000000	0.29701500000000	0.00000000000000	0.11390000000000	0.00000000000000	0.00000000000000	0.00000000000000	0.00000000000000	0.00000000000000	0.00000000000000	0.00000000000000	23.10073700000000	0.00000000000000	0.00000000000000	0.00000000000000	0.00000000000000	
11.58662400000000	50.31320100000000	768.24906999999996	58.94738400000000	0.29639200000000	0.00000000000000	0.11389000000000	0.00000000000000	0.00000000000000	0.00000000000000	0.00000000000000	0.00000000000000	0.00000000000000	0.00000000000000	23.13582300000000	0.00000000000000	0.00000000000000	0.00000000000000	0.00000000000000	
11.58829200000000	49.77856100000000	770.07112299999994	58.99733800000000	0.29579900000000	0.00000000000000	0.11387900000000	0.00000000000000	0.00000000000000	0.00000000000000	0.00000000000000	0.00000000000000	0.00000000000000	0.00000000000000	23.16825100000000	0.00000000000000	0.00000000000000	0.00000000000000	0.00000000000000	
11.58996100000000	49.25483900000000	771.79399300000000	59.04126100000000	0.29523500000000	0.00000000000000	0.11386700000000	0.00000000000000	0.00000000000000	0.00000000000000	0.00000000000000	0.00000000000000	0.00000000000000	0.00000000000000	23.19782400000000	0.00000000000000	0.00000000000000	0.00000000000000	0.00000000000000	
11.59162700000000	48.74201700000000	773.41637700000001	59.07888000000000	0.29469700000000	0.00000000000000	0.11385500000000	0.00000000000000	0.00000000000000	0.00000000000000	0.00000000000000	0.00000000000000	0.00000000000000	0.00000000000000	23.22433000000000	0.00000000000000	0.00000000000000	0.00000000000000	0.00000000000000	
11.59329100000000	48.23999400000000	774.93703700000003	59.10989600000000	0.29418200000000	0.00000000000000	0.11384200000000	0.00000000000000	0.00000000000000	0.00000000000000	0.00000000000000	0.00000000000000	0.00000000000000	0.00000000000000	23.24753900000000	0.00000000000000	0.00000000000000	0.00000000000000	0.00000000000000	
11.59495200000000	47.74859800000000	776.35481400000003	59.13398600000000	0.29368800000000	0.00000000000000	0.11382900000000	0.00000000000000	0.00000000000000	0.00000000000000	0.00000000000000	0.00000000000000	0.00000000000000	0.00000000000000	23.26721300000000	0.00000000000000	0.00000000000000	0.00000000000000	0.00000000000000	
11.59662100000000	47.26758400000000	777.66864099999998	59.15080800000000	0.29321200000000	0.00000000000000	0.11381600000000	0.00000000000000	0.00000000000000	0.00000000000000	0.00000000000000	0.00000000000000	0.00000000000000	0.00000000000000	23.28310500000000	0.00000000000000	0.00000000000000	0.00000000000000	0.00000000000000	
11.59829000000000	46.79664500000000	778.87755100000004	59.16000800000000	0.29275300000000	0.00000000000000	0.11380300000000	0.00000000000000	0.00000000000000	0.00000000000000	0.00000000000000	0.00000000000000	0.00000000000000	0.00000000000000	23.29496400000000	0.00000000000000	0.00000000000000	0.00000000000000	0.00000000000000	
11.59995700000000	46.33541300000000	779.98069199999998	59.16122500000000	0.29230600000000	0.00000000000000	0.11379100000000	0.00000000000000	0.00000000000000	0.00000000000000	0.00000000000000	0.00000000000000	0.00000000000000	0.00000000000000	23.30253500000000	0.00000000000000	0.00000000000000	0.00000000000000	0.00000000000000	
11.60162600000000	45.88346900000000	780.97733800000003	59.15409400000000	0.29187000000000	0.00000000000000	0.11377800000000	0.00000000000000	0.00000000000000	0.00000000000000	0.00000000000000	0.00000000000000	0.00000000000000	0.00000000000000	23.30556500000000	0.00000000000000	0.00000000000000	0.00000000000000	0.00000000000000	
11.60328600000000	45.44034700000000	781.86689600000000	59.13825400000000	0.29144100000000	0.00000000000000	0.11376500000000	0.00000000000000	0.00000000000000	0.00000000000000	0.00000000000000	0.00000000000000	0.00000000000000	0.00000000000000	23.30380700000000	0.00000000000000	0.00000000000000	0.00000000000000	0.00000000000000	
11.60495400000000	45.00554000000000	782.64891699999998	59.11334900000000	0.29101700000000	0.00000000000000	0.11375300000000	0.00000000000000	0.00000000000000	0.00000000000000	0.00000000000000	0.00000000000000	0.00000000000000	0.00000000000000	23.29701800000000	0.00000000000000	0.00000000000000	0.00000000000000	0.00000000000000	
11.60662200000000	44.57850800000000	783.32310199999995	59.07903900000000	0.29059500000000	0.00000000000000	0.11374200000000	0.00000000000000	0.00000000000000	0.00000000000000	0.00000000000000	0.00000000000000	0.00000000000000	0.00000000000000	23.28496500000000	0.00000000000000	0.00000000000000	0.00000000000000	0.00000000000000	
11.60829100000000	44.15868000000000	783.88931600000001	59.03499800000000	0.29017200000000	0.00000000000000	0.11373100000000	0.00000000000000	0.00000000000000	0.00000000000000	0.00000000000000	0.00000000000000	0.00000000000000	0.00000000000000	23.26742900000000	0.00000000000000	0.00000000000000	0.00000000000000	0.00000000000000	
11.60995700000000	43.74546600000000	784.34758499999998	58.98092100000000	0.28974700000000	0.00000000000000	0.11372100000000	0.00000000000000	0.00000000000000	0.00000000000000	0.00000000000000	0.00000000000000	0.00000000000000	0.00000000000000	23.24420200000000	0.00000000000000	0.00000000000000	0.00000000000000	0.00000000000000	
11.61162400000000	43.33826000000000	784.69811100000004	58.91652700000000	0.28931500000000	0.00000000000000	0.11371100000000	0.00000000000000	0.00000000000000	0.00000000000000	0.00000000000000	0.00000000000000	0.00000000000000	0.00000000000000	23.21509600000000	0.00000000000000	0.00000000000000	0.00000000000000	0.00000000000000	
